<svg width="24" height="25" viewBox="0 0 24 25" fill="none" xmlns="http://www.w3.org/2000/svg">
<g clip-path="url(#clip0_27_387)">
<path fill-rule="evenodd" clip-rule="evenodd" d="M2.05556 2.03955C1.89068 2.03955 1.75 2.17507 1.75 2.35092V22.2282C1.75 22.404 1.89068 22.5396 2.05556 22.5396H21.9445C22.1093 22.5396 22.25 22.404 22.25 22.2282V2.35092C22.25 2.17507 22.1093 2.03955 21.9445 2.03955H2.05556ZM0.25 2.35092C0.25 1.35442 1.0545 0.539551 2.05556 0.539551H21.9445C22.9455 0.539551 23.75 1.35441 23.75 2.35092V22.2282C23.75 23.2247 22.9455 24.0396 21.9445 24.0396H2.05556C1.0545 24.0396 0.25 23.2247 0.25 22.2282V2.35092Z" fill="white"/>
<path fill-rule="evenodd" clip-rule="evenodd" d="M19.3307 9.23315H17.1537H16.8964C16.2214 9.23315 15.6742 9.78035 15.6742 10.4554V12.9006H19.3307L18.7952 16.566H15.6742V23.2897H11.6532V16.566H8.33334V12.9006H11.6103L11.6532 9.42135L11.6412 8.17435C11.6243 6.4135 13.0381 4.97238 14.7989 4.95547C14.8091 4.95537 14.8193 4.95532 14.8295 4.95532H19.3307V9.23315Z" fill="white"/>
</g>
<defs>
<clipPath id="clip0_27_387">
<rect width="24" height="24" fill="white" transform="translate(0 0.289551)"/>
</clipPath>
</defs>
</svg>
