<svg width="24" height="25" viewBox="0 0 24 25" fill="none" xmlns="http://www.w3.org/2000/svg">
<path fill-rule="evenodd" clip-rule="evenodd" d="M2.25 7.28955C2.25 4.6662 4.37665 2.53955 7 2.53955H17C19.6234 2.53955 21.75 4.6662 21.75 7.28955V17.2896C21.75 19.9129 19.6234 22.0396 17 22.0396H7C4.37665 22.0396 2.25 19.9129 2.25 17.2896V7.28955ZM7 4.03955C5.20507 4.03955 3.75 5.49462 3.75 7.28955V17.2896C3.75 19.0845 5.20507 20.5396 7 20.5396H17C18.7949 20.5396 20.25 19.0845 20.25 17.2896V7.28955C20.25 5.49462 18.7949 4.03955 17 4.03955H7Z" fill="white"/>
<path fill-rule="evenodd" clip-rule="evenodd" d="M7.25 12.2896C7.25 9.66619 9.37664 7.53955 12 7.53955C14.6234 7.53955 16.75 9.66619 16.75 12.2896C16.75 14.9129 14.6234 17.0396 12 17.0396C9.37664 17.0396 7.25 14.9129 7.25 12.2896ZM12 9.03955C10.2051 9.03955 8.75 10.4946 8.75 12.2896C8.75 14.0845 10.2051 15.5396 12 15.5396C13.7949 15.5396 15.25 14.0845 15.25 12.2896C15.25 10.4946 13.7949 9.03955 12 9.03955Z" fill="white"/>
<path d="M17.5 7.78955C18.0523 7.78955 18.5 7.34185 18.5 6.78955C18.5 6.23725 18.0523 5.78955 17.5 5.78955C16.9477 5.78955 16.5 6.23725 16.5 6.78955C16.5 7.34185 16.9477 7.78955 17.5 7.78955Z" fill="white"/>
</svg>
