<svg width="22" height="19" viewBox="0 0 22 19" fill="none" xmlns="http://www.w3.org/2000/svg">
<path d="M19.7097 0.944046C19.7097 0.944046 21.6523 0.186546 21.4904 2.02619C21.4365 2.7837 20.9508 5.43495 20.573 8.30265L19.278 16.7975C19.278 16.7975 19.17 18.042 18.1987 18.2584C17.2274 18.4748 15.7704 17.5009 15.5005 17.2845C15.2847 17.1222 11.4534 14.6873 10.1043 13.497C9.72655 13.1723 9.29485 12.523 10.1582 11.7655L15.8244 6.3548C16.4719 5.7055 17.1194 4.1905 14.4213 6.03015L6.86655 11.1704C6.86655 11.1704 6.00315 11.7114 4.3843 11.2245L0.876711 10.1423C0.876711 10.1423 -0.418395 9.3307 1.79408 8.51905C7.19035 5.976 13.8278 3.37885 19.7097 0.944046Z" fill="white"/>
</svg>
