<svg width="19" height="22" viewBox="0 0 19 22" fill="none" xmlns="http://www.w3.org/2000/svg">
<path d="M7.67915 8.85964C4.7348 8.71759 2.6882 9.76734 1.53931 12.0089C-0.18403 15.3712 1.24025 20.8729 6.98955 20.8729C12.7388 20.8729 12.9052 15.3174 12.9052 14.7354C12.9052 14.3473 12.9052 12.1779 12.9052 8.22694C14.1349 9.00584 15.1716 9.47469 16.0155 9.63349C16.8594 9.79234 17.3959 9.86274 17.625 9.84469V6.60679C16.8444 6.51269 16.1694 6.33334 15.6 6.06874C14.7458 5.67179 13.052 4.57024 13.052 2.95571C13.0532 2.96361 13.0532 2.54714 13.052 1.7063H9.49295C9.4824 9.61434 9.4824 13.9573 9.49295 14.7354C9.50885 15.9024 8.6035 17.5349 6.7679 17.5349C4.93225 17.5349 4.0269 15.9037 4.0269 14.8516C4.0269 14.2075 4.2481 13.2739 5.16265 12.5825C5.705 12.1726 6.45775 12.0089 7.67915 12.0089C7.67915 11.6311 7.67915 10.5813 7.67915 8.85964Z" stroke="white" stroke-width="1.5" stroke-linejoin="round"/>
</svg>
