<svg width="24" height="25" viewBox="0 0 24 25" fill="none" xmlns="http://www.w3.org/2000/svg">
<path fill-rule="evenodd" clip-rule="evenodd" d="M19.1683 4.97495C18.6902 4.31936 18.1159 3.81048 17.4383 3.47832C16.6735 3.1035 15.8237 2.97663 14.9147 3.06795C13.4473 3.21536 12.4224 4.03363 11.8369 5.23479C11.3368 6.26076 11.1624 7.54595 11.2222 8.9216C9.8576 9.45011 8.65357 9.16389 7.58645 8.48264C6.36563 7.70327 5.35044 6.41308 4.63635 5.24912C4.47912 4.99283 4.18401 4.85522 3.88661 4.8995C3.5892 4.94379 3.34699 5.16142 3.27126 5.45241C2.77153 7.37235 2.23618 9.85262 3.29714 12.6087C3.90478 14.1872 5.18217 15.4997 7.01747 16.5824C5.19337 17.4005 3.74771 17.6449 2.64039 17.4339C2.27835 17.3649 1.91983 17.5692 1.7946 17.9158C1.66938 18.2624 1.81456 18.6487 2.1371 18.827C2.15989 18.8396 2.1862 18.8542 2.2159 18.8708C2.81486 19.2041 4.79685 20.3072 7.25581 20.9847C9.81722 21.6904 13.0598 21.9792 15.8073 20.2626C20.9024 17.0792 20.8682 11.6842 20.8519 9.1153C20.8515 9.04683 20.8511 8.98037 20.8508 8.91601C20.9216 8.79297 21.0094 8.66545 21.1228 8.50375C21.1282 8.49608 21.1336 8.48835 21.1391 8.48056C21.2855 8.27183 21.466 8.01446 21.632 7.70015C21.9906 7.02095 22.25 6.14031 22.25 4.76142C22.25 4.46348 22.0736 4.19378 21.8007 4.07433C21.5277 3.95488 21.2099 4.00833 20.9911 4.21051C20.2882 4.85975 19.6965 5.05078 19.1683 4.97495ZM16.7781 4.82523C16.3002 4.591 15.7377 4.49282 15.0647 4.56044C14.159 4.65142 13.5633 5.11645 13.1853 5.892C12.7862 6.71085 12.6294 7.89298 12.7512 9.32948C12.7771 9.63423 12.6153 9.92414 12.3424 10.0622C10.2322 11.1293 8.31708 10.7287 6.7793 9.74697C5.82973 9.14076 5.01653 8.31189 4.35361 7.46881C4.1022 8.89702 4.06567 10.4298 4.697 12.0698C5.24626 13.4966 6.6061 14.8034 8.98244 15.9234C9.23821 16.044 9.40444 16.2981 9.41239 16.5807C9.42033 16.8634 9.26865 17.1265 9.02006 17.2612C7.72559 17.9628 6.50943 18.4682 5.38122 18.7491C6.05552 19.0298 6.82646 19.3105 7.65424 19.5386C10.0656 20.2029 12.7958 20.3755 15.0125 18.9905C19.3781 16.2628 19.3609 11.6756 19.3512 9.07475C19.3507 8.95644 19.3503 8.84225 19.3503 8.73252C19.3503 8.62072 19.3753 8.51034 19.4234 8.40944C19.5652 8.11239 19.7426 7.8594 19.89 7.64923L19.8954 7.64151C20.0505 7.4203 20.1842 7.22958 20.3055 6.99976C20.4101 6.80183 20.5118 6.56206 20.5915 6.24836C19.9254 6.5199 19.2246 6.57556 18.5028 6.35994C18.3334 6.30933 18.1873 6.2005 18.0903 6.05265C17.6984 5.45508 17.2575 5.06022 16.7781 4.82523Z" fill="white"/>
</svg>
