<svg width="24" height="25" viewBox="0 0 24 25" fill="none" xmlns="http://www.w3.org/2000/svg">
<path d="M5.5317 5.49675C8.3033 5.3586 10.4591 5.28955 11.9989 5.28955C13.5389 5.28955 15.6954 5.35865 18.4684 5.4968C19.9695 5.5716 21.1835 6.7455 21.3087 8.24315C21.4355 9.76015 21.4989 11.0963 21.4989 12.2515C21.4989 13.4209 21.434 14.7756 21.304 16.3157C21.1792 17.7947 19.9916 18.9602 18.5104 19.057C16.1397 19.2121 13.9692 19.2896 11.9989 19.2896C10.0289 19.2896 7.8592 19.2121 5.4898 19.0571C4.00914 18.9602 2.82173 17.7955 2.69632 16.3171C2.56471 14.7655 2.4989 13.4103 2.4989 12.2515C2.4989 11.1066 2.56314 9.77005 2.6916 8.24175C2.81745 6.7447 4.03125 5.57155 5.5317 5.49675Z" stroke="white" stroke-width="1.5" stroke-linejoin="round"/>
<path d="M10.5 10.0941V14.4926C10.5 14.7292 10.6919 14.9211 10.9285 14.9211C11.0126 14.9211 11.0948 14.8964 11.1649 14.8501L14.4637 12.6698C14.6612 12.5393 14.7154 12.2734 14.5849 12.076C14.5537 12.0288 14.5135 11.9882 14.4665 11.9566L11.1677 9.73848C10.9713 9.60643 10.705 9.65858 10.5729 9.85503C10.5254 9.92573 10.5 10.009 10.5 10.0941Z" stroke="white" stroke-width="1.5" stroke-linejoin="round"/>
</svg>
